<?xml version="1.0" encoding="utf-8"?>
<!-- Generator: Adobe Illustrator 19.2.0, SVG Export Plug-In . SVG Version: 6.00 Build 0)  -->
<svg version="1.1" id="Layer_1" xmlns="http://www.w3.org/2000/svg" xmlns:xlink="http://www.w3.org/1999/xlink" x="0px" y="0px"
	 viewBox="0 0 42 42" style="enable-background:new 0 0 42 42;" xml:space="preserve">
<style type="text/css">
	.st0{fill:#FFFFFF;}
</style>
<path class="st0" d="M25.5,21L41.1,5.5c1.2-1.2,1.2-3.2,0-4.5c-1.2-1.2-3.2-1.2-4.5,0L21,16.6L5.4,0.9c-1.2-1.2-3.2-1.2-4.5,0
	c-1.2,1.2-1.2,3.2,0,4.5L16.6,21L1,36.6c-1.2,1.2-1.2,3.2,0,4.5C1.6,41.7,2.4,42,3.2,42s1.6-0.3,2.2-0.9L21,25.5l15.6,15.6
	c0.6,0.6,1.4,0.9,2.2,0.9s1.6-0.3,2.2-0.9c1.2-1.2,1.2-3.2,0-4.5L25.5,21z"/>
</svg>
